# xmcd
#
# Track frame offsets: 
#        150
#        12310
#        29437
#        41690
#        51962
#        63190
#        76550
#        87522
#        96115
#        107952
#        119647
#        128867
#        144697
#        160040
#        175792
#        184562
#
# Disc length: 2586 seconds
#
# Revision: 0
# Processed by: cddbd v1.5.2PL0 Copyright (c) Steve Scherf et al.
# Submitted via: ExactAudioCopy v0.95a5
#
DISCID=d20a1810
DTITLE=The Stratton Mountain Boys - 30th Anniversary
DYEAR=1994
DGENRE=Ethnic
TTITLE0=In Den Bergen
TTITLE1=Schneewalzer
TTITLE2=Konigsjodler
TTITLE3=Stratton Mountain Polka
TTITLE4=Klarinettenteufel
TTITLE5=Auf Der Nordketten
TTITLE6=Ein Abend In Den Bergen
TTITLE7=Alpenhorn Serenade
TTITLE8=Bergvagabunden
TTITLE9=Serfauser Jodler
TTITLE10=Klarinettenmuckel
TTITLE11=Grusse Aus Vermont
TTITLE12=Glocken Plattler
TTITLE13=Hirtenlied
TTITLE14=Mein Schatz Leb' Wohl
TTITLE15=Bozner Bergsteiger
EXTD=
EXTT0=
EXTT1=
EXTT2=
EXTT3=
EXTT4=
EXTT5=
EXTT6=
EXTT7=
EXTT8=
EXTT9=
EXTT10=
EXTT11=
EXTT12=
EXTT13=
EXTT14=
EXTT15=
PLAYORDER=
